PathFileType	4	(X/Y/Z)	Patient4_TMGait_0pt4_03_left_29.trc.trc
DataRate	CameraRate	NumFrames	NumMarkers	Units	OrigDataRate	OrigDataStartFrame	OrigNumFrames
74.074074074074	74.074074074074	6	33	mm	74.074074074074	89	       141
Frame#	Time	Sacral			L.Shoulder			Chest			R.Shoulder			Neck			R.ASIS			L.ASIS			R.Thigh.Superior			R.Thigh.Lateral			R.Thigh.Inferior			R.Patella			L.Thigh.Superior			L.Thigh.Lateral			L.Thigh.Inferior			L.Patella			L.Shank.Superior			L.Shank.Lateral			L.Shank.Inferior			R.Shank.Superior			R.Shank.Lateral			R.Shank.Inferior			R.Heel			R.Midfoot.Superior			R.Midfoot.Lateral			R.Toe			L.Heel			L.Midfoot.Lateral			L.Midfoot.Superior			L.Toe			L.Elbow			L.Wrist			R.Elbow			R.Wrist			
		X1	Y1	Z1	X2	Y2	Z2	X3	Y3	Z3	X4	Y4	Z4	X5	Y5	Z5	X6	Y6	Z6	X7	Y7	Z7	X8	Y8	Z8	X9	Y9	Z9	X10	Y10	Z10	X11	Y11	Z11	X12	Y12	Z12	X13	Y13	Z13	X14	Y14	Z14	X15	Y15	Z15	X16	Y16	Z16	X17	Y17	Z17	X18	Y18	Z18	X19	Y19	Z19	X20	Y20	Z20	X21	Y21	Z21	X22	Y22	Z22	X23	Y23	Z23	X24	Y24	Z24	X25	Y25	Z25	X26	Y26	Z26	X27	Y27	Z27	X28	Y28	Z28	X29	Y29	Z29	X30	Y30	Z30	X31	Y31	Z31	X32	Y32	Z32	X33	Y33	Z33	

89	39.388000000000	859.676845849907	999.488486081512	459.527458936144	1037.187090478575	1429.294397279827	275.286399422726	1134.572789385158	1364.705167180525	441.524642254451	1042.456669659513	1437.488563913801	611.275450572120	1015.942530701387	1493.249321835131	430.739440724316	1088.641663113612	944.160442778403	584.719575396631	1078.502389771495	958.482652613674	309.635905457465	1141.532421525783	746.363023729912	557.907743481562	1065.491446612428	634.279991070249	618.292493875066	1147.439168195813	585.496534803359	539.839356063297	1152.065488402657	498.221701104429	546.834571167392	1124.854646472968	742.389832331132	333.477878741768	1043.402308364828	626.900115083974	260.420046256238	1132.058064125887	545.121592468490	317.547810147852	1127.694574027787	461.335291152043	311.947627593048	1064.319453391982	400.685886874861	304.767195526577	928.438114273759	344.863131953746	255.871641550752	926.286640987155	215.379129677663	310.692478552662	1127.098168054331	408.353145448000	557.088778255416	1059.299570852233	303.914440582774	621.854387268752	1104.877631091913	208.817490797448	560.743987892050	978.396500657808	41.915556288344	534.529310319946	1147.885682365330	97.415599728326	569.199321028931	1061.992411678612	37.061978741040	609.338993017719	1269.608803861263	48.050060859511	596.898717616258	746.236594231174	125.507667791903	351.196199184409	808.241131474527	88.890948353309	270.688120311509	909.397044581492	114.639500691578	290.935480243383	1003.753371279324	33.725363829399	262.594053135262	1018.975694932086	1078.536879000129	155.735763940427	1210.905656327536	899.237078473568	154.960760645897	992.169960289963	1098.324675908190	743.590736272717	1103.472087737546	861.498634911152	754.656824025328	
90	39.401500000000	859.237589226557	999.231563677898	463.656464093245	1034.683784413218	1429.427490650786	278.634978980455	1133.901335154254	1364.687587196025	443.777090663779	1043.586508452691	1437.113285651001	614.598161344395	1015.142196092358	1493.154098761079	434.520653134761	1089.387913404259	944.205476519601	586.737676220876	1076.607024109857	958.225797585580	311.947692545815	1141.050301233531	745.722738886596	560.430054856042	1064.202827452153	633.899814963111	620.356515453203	1145.794217046803	584.890393807631	541.763961710305	1149.879375065141	497.457638501830	548.274168526108	1128.910019780494	745.289862758837	335.451172027313	1052.164441193869	627.818777772227	261.432086897169	1143.350809540513	548.186918245527	318.477178824156	1140.375226418794	463.358742920479	312.283806008821	1075.450032104116	402.458396533811	305.118873081394	937.647874485459	351.051260763669	256.402945129928	931.742156642727	221.538271660886	310.717390058583	1124.344402861183	407.649963452937	558.216780111213	1056.068407111721	303.400512833301	622.607041198761	1100.641486357921	208.245178121810	561.098236525362	972.984707716962	41.882848602265	534.618305712081	1142.528375887976	97.253949357102	569.364660132042	1056.560698669163	37.003629172371	609.490361802491	1264.232444360282	47.755487322589	597.061353410596	748.455956532430	140.514707296418	351.334789186386	808.265960758327	100.100574212856	270.830354755229	910.919080495353	119.632208899669	290.872605235524	999.341932618024	32.749545538802	262.783565875789	1014.924546995803	1078.331085137897	160.005426355130	1196.085026808288	887.545886865470	156.247890049783	1001.086253811133	1097.273199275703	748.724791621162	1122.815336417358	865.637237021683	757.291887353732	
91	39.415000000000	858.641282341045	998.957805929969	467.626028414135	1032.078973322751	1429.433593386116	281.768896885641	1133.191471665099	1364.560032440557	445.758481430375	1044.819690690606	1436.695674525396	617.692213085189	1014.385061897642	1493.002318119765	438.072091749180	1089.946671184311	944.152202050314	588.573960282672	1074.694380819369	957.939240204595	314.049043710843	1140.370744614509	745.052947242286	562.502272670130	1063.012211799066	633.502897955160	622.268731220383	1144.023707050328	584.264491382509	543.342710298853	1147.608492053530	496.663609533046	549.532781855642	1132.783364582353	748.448209323932	337.174874146217	1060.617910523942	629.122136783528	262.346534978866	1154.214768287101	551.786698312317	319.325022592087	1152.808663281122	466.027944719560	312.729915723863	1086.569854718842	404.718570034173	305.581034983240	947.135159624615	357.387605927335	256.966894067301	937.731599876923	227.959738195774	310.990684404410	1121.517329447668	406.913246365662	559.202613635708	1052.783251454091	302.863340170452	623.267264749415	1096.330892416631	207.650756984398	561.369536946496	967.495114510700	41.840011883937	534.700659332937	1137.094244329768	97.074751629150	569.488969541744	1051.053921092306	36.938760721033	609.625767060264	1258.781632046567	47.431470889585	597.182022875008	751.673161358009	155.473700637497	351.689926251300	809.279753864225	111.659320208405	271.129154206612	913.164777940251	125.098873070549	291.096098534194	995.716554100764	31.928949705545	263.012250830663	1010.587399976362	1077.976330937613	164.194356170241	1180.176633218917	876.459726418928	157.490547838442	1010.108274075160	1096.417487085456	753.633282362276	1142.289697468172	870.632915498337	759.446950143767	
92	39.428500000000	857.920201681228	998.710806415959	471.415007162393	1029.443839628973	1429.362851076097	284.673651054751	1132.468556392211	1364.364940845292	447.474113990491	1046.143631586823	1436.291681961625	620.531462864873	1013.694853132158	1492.840658237363	441.354602014970	1090.314015838498	944.023596974487	590.259741185538	1072.780226034687	957.689248906719	315.969720326219	1139.534613737440	744.398105744929	564.112680787176	1061.936896659845	633.113595426689	624.010133970379	1142.177257288291	583.638795599404	544.578440440921	1145.288048660280	495.862024834463	550.590356211279	1136.349531908453	751.857365407938	338.694732118841	1068.546684796147	630.838818493153	263.197836658226	1164.447724230784	555.912081754039	320.069456019142	1164.780882903095	469.334300304469	313.211624200148	1097.473529906744	407.474195167180	306.102163470346	956.680882521326	363.741197764936	257.580850598989	944.203634454870	234.447291384536	311.478823961183	1118.647640094275	406.169462900009	560.035601517411	1049.475176902164	302.339069234806	623.847707462604	1091.979054530108	207.061017937510	561.564856853681	961.967497937590	41.796605746628	534.788093478986	1131.618768384605	96.902072398737	569.586821986817	1045.512015188234	36.878303162326	609.753145983194	1253.293273640436	47.112118572347	597.276079629444	755.894588733394	169.744114468364	352.269202908721	811.415429343727	123.042621549792	271.592047924696	916.262965229141	130.845969709661	291.562435593077	993.304790838721	31.391362764095	263.253785535319	1005.874033604726	1077.537365954281	168.307459717654	1163.231007819217	866.171938694979	158.718119262470	1019.225476376773	1095.800738105826	758.243979947642	1161.791705056965	876.547073036258	761.046667271595	
93	39.442000000000	857.113413072959	998.535815449898	475.018922833148	1026.844599399998	1429.266927371713	287.345733916151	1131.757482427446	1364.150298711536	448.940008246506	1047.543137184964	1435.957618073323	623.100905914492	1013.088875242340	1492.714381074219	444.342506748422	1090.501751138092	943.844479514412	591.820695593162	1070.862924628370	957.540543577793	317.740871399985	1138.575877989993	743.784229330253	565.305844554704	1060.937000114384	632.748207700346	625.569538292348	1140.273577101287	583.024282587301	545.507083573735	1142.920632167694	495.072352819678	551.437840384145	1139.500630329995	755.498948687123	340.066774314161	1075.780876590726	632.975718400212	264.008651650755	1173.895679541073	560.527345918976	320.682491503223	1176.112427302949	473.243910515777	313.641682952599	1107.997186938821	410.706125265223	306.611894142233	966.102243175973	369.949043302500	258.248107547974	951.150851614066	240.767437980693	312.118179297750	1115.736269603410	405.443302642104	560.712278072773	1046.146677655980	301.858006198470	624.358855902278	1087.600675476025	206.499817725789	561.693750398949	956.432998318151	41.759934151999	534.887190634987	1126.129081772507	96.751912981988	569.669575397774	1039.965307003846	36.829237996405	609.876741535060	1247.795710177953	46.822747161877	597.357376888140	761.145331306772	182.637924856543	353.057379213687	814.828799786673	133.660161827422	272.205394871602	920.391004108703	136.617791559522	292.197425492956	992.608629193941	31.257658171611	263.466988665417	1000.709356895888	1077.089922830636	172.340036748433	1145.340677581393	856.849710193158	159.965793569810	1028.418697406045	1095.464803608351	762.494329385773	1181.212660485068	883.432013402628	762.021288147789	
94	39.455500000000	856.263147055167	998.473640782383	478.446829354330	1024.336067535937	1429.191970110148	289.791900154933	1131.081413150543	1363.961581942292	450.179207621223	1049.005170682569	1435.741421434888	625.397806122064	1012.578544345811	1492.661231063422	447.026324403282	1090.536673191605	943.639810847349	593.272306970998	1068.928413300938	957.547510896790	319.387341356480	1137.515306819672	743.219745531932	566.160207232253	1059.935808456954	632.416858316943	626.943705513139	1138.302068925184	582.424331151939	546.183795562355	1140.479858137336	494.310625893597	552.078640274306	1142.154066532141	759.340800304989	341.340564248313	1082.202767010526	635.513961857857	264.787586485522	1182.451098870047	565.567506242184	321.136462469248	1186.660687303440	477.697415077526	313.938792123893	1118.022964029787	414.365306815258	307.036351954119	975.267471941042	375.816229831610	258.957367065054	958.614900463541	246.660412878847	312.823870610965	1112.758578851290	404.755639410269	561.237335086614	1042.777216483222	301.441810642125	624.810225198768	1083.194179844827	205.985754524986	561.767820716851	950.912658462789	41.734681248013	535.000274949434	1120.643225636663	96.631825044747	569.744892996153	1034.433456592406	36.794715224637	609.997859016649	1242.307342755453	46.578138945394	597.435964280479	767.482970545656	193.475508210384	354.014981830605	819.696687019706	142.908092470679	272.931240400127	925.764607444736	142.113755666131	292.902902110374	994.162142057214	31.613759620605	263.592229033469	995.044460224198	1076.712139847101	176.274222274293	1126.645002888485	848.624888513054	161.274648365749	1037.657592979230	1095.441610710466	766.335011045696	1200.437171261716	891.322101889157	762.312131673249	
